<svg width="24" height="24" viewBox="0 0 24 24" fill="none" xmlns="http://www.w3.org/2000/svg">
<circle cx="12" cy="12" r="12" fill="#30CCCC"/>
<path d="M18 13.5C18 16.8137 15.3137 19.5 12 19.5C8.68629 19.5 6 16.8137 6 13.5C6 10.1863 8.68629 7.5 12 7.5C15.3137 7.5 18 10.1863 18 13.5Z" fill="white"/>
<path d="M4.5 10.5C4.5 8.84315 5.84315 7.5 7.5 7.5H16.5C18.1569 7.5 19.5 8.84315 19.5 10.5C19.5 12.1569 18.1569 13.5 16.5 13.5H7.5C5.84315 13.5 4.5 12.1569 4.5 10.5Z" fill="white"/>
<path d="M7.5 4.5H9V9H7.5V4.5Z" fill="white"/>
<path d="M15 4.5H16.5V9H15V4.5Z" fill="white"/>
<path d="M15.75 10.5L11.25 15.75L9 13.5" stroke="#30CCCC" stroke-width="1.5" stroke-linecap="round" stroke-linejoin="round"/>
<rect x="10.5" y="18" width="3" height="6" fill="white"/>
</svg>
